<!DOCTYPE svg PUBLIC "-//W3C//DTD SVG 1.1//EN" "http://www.w3.org/Graphics/SVG/1.1/DTD/svg11.dtd">

<!-- Uploaded to: SVG Repo, www.svgrepo.com, Transformed by: SVG Repo Mixer Tools -->
<svg width="800px" height="800px" viewBox="0 0 48 48" xmlns="http://www.w3.org/2000/svg" fill="#000000">

<g id="SVGRepo_bgCarrier" stroke-width="0"/>

<g id="SVGRepo_tracerCarrier" stroke-linecap="round" stroke-linejoin="round"/>

<g id="SVGRepo_iconCarrier">

<title>Free Medical icons</title>

<rect x="18" y="34" width="12" height="10" transform="translate(-15 63) rotate(-90)" fill="#a6c7ff"/>

<path d="M40,48H8a3,3,0,0,1-3-3V13a3,3,0,0,1,3-3h7v4H9V44H39V14H33V10h7a3,3,0,0,1,3,3V45A3,3,0,0,1,40,48Z" fill="#c31fff"/>

<rect x="22" y="6" width="4" height="10" transform="translate(13 35) rotate(-90)" fill="#a6c7ff"/>

<rect x="22" y="6" width="4" height="10" transform="translate(48 22) rotate(-180)" fill="#a6c7ff"/>

<path d="M32,22H16a3,3,0,0,1-3-3V3a3,3,0,0,1,3-3H32a3,3,0,0,1,3,3V19A3,3,0,0,1,32,22ZM17,18H31V4H17V18Z" fill="#c31fff"/>

<rect width="48" height="48" fill="none"/>

</g>

</svg>