<!DOCTYPE svg PUBLIC "-//W3C//DTD SVG 1.1//EN" "http://www.w3.org/Graphics/SVG/1.1/DTD/svg11.dtd">

<!-- Uploaded to: SVG Repo, www.svgrepo.com, Transformed by: SVG Repo Mixer Tools -->
<svg width="800px" height="800px" viewBox="0 0 48 48" xmlns="http://www.w3.org/2000/svg" fill="#000000">

<g id="SVGRepo_bgCarrier" stroke-width="0"/>

<g id="SVGRepo_tracerCarrier" stroke-linecap="round" stroke-linejoin="round"/>

<g id="SVGRepo_iconCarrier">

<title>Free Medical icons</title>

<path d="M22,16a2,2,0,0,1-2-2V4H18a2,2,0,0,1,0-4h4a2,2,0,0,1,2,2V14A2,2,0,0,1,22,16Z" fill="#06b764"/>

<circle cx="41" cy="29" r="5" fill="#ededed"/>

<path d="M41,36a7,7,0,1,1,7-7A7,7,0,0,1,41,36Zm0-10a3,3,0,1,0,3,3A3,3,0,0,0,41,26Z" fill="#06b764"/>

<path d="M2,16a2,2,0,0,1-2-2V2A2,2,0,0,1,2,0H6A2,2,0,0,1,6,4H4V14A2,2,0,0,1,2,16Z" fill="#06b764"/>

<path d="M12,26A12,12,0,0,1,0,14a2,2,0,1,1,4,0,8,8,0,1,0,16,0,2,2,0,0,1,4,0A12,12,0,0,1,12,26Z" fill="#06b764"/>

<path d="M37,48H16a6,6,0,0,1-6-6V25h4V42a2,2,0,0,0,2,2H37a2,2,0,0,0,2-2V34h4v8A6,6,0,0,1,37,48Z" fill="#06b764"/>

<rect width="48" height="48" fill="none"/>

</g>

</svg>