<?xml version="1.0" encoding="utf-8"?><!-- Uploaded to: SVG Repo, www.svgrepo.com, Generator: SVG Repo Mixer Tools -->
<svg width="800px" height="800px" viewBox="0 0 48 48" xmlns="http://www.w3.org/2000/svg"><title>Free Medical icons</title><path d="M37,47H11V7a6,6,0,0,1,6-6H31a6,6,0,0,1,6,6V47ZM15,43H33V7a2,2,0,0,0-2-2H17a2,2,0,0,0-2,2V43Z" fill="#2161ff"/><path d="M44,47H4a3,3,0,0,1-3-3V23a3,3,0,0,1,3-3h9v4H5V43H43V24H35.67V20H44a3,3,0,0,1,3,3V44A3,3,0,0,1,44,47Z" fill="#2161ff"/><rect x="19" y="10" width="4" height="10" fill="#a6c7ff"/><rect x="22" y="10" width="4" height="10" transform="translate(9 39) rotate(-90)" fill="#a6c7ff"/><rect x="25" y="10" width="4" height="10" fill="#a6c7ff"/><rect width="48" height="48" fill="none"/></svg>