<!DOCTYPE svg PUBLIC "-//W3C//DTD SVG 1.1//EN" "http://www.w3.org/Graphics/SVG/1.1/DTD/svg11.dtd">

<!-- Uploaded to: SVG Repo, www.svgrepo.com, Transformed by: SVG Repo Mixer Tools -->
<svg fill="#323971" version="1.1" id="Capa_1" xmlns="http://www.w3.org/2000/svg" xmlns:xlink="http://www.w3.org/1999/xlink" width="800px" height="800px" viewBox="0 0 935.475 935.475" xml:space="preserve" stroke="#323971">

<g id="SVGRepo_bgCarrier" stroke-width="0"/>

<g id="SVGRepo_tracerCarrier" stroke-linecap="round" stroke-linejoin="round"/>

<g id="SVGRepo_iconCarrier"> <g> <g> <path d="M921.983,620.366c-18.399-93.701-59.1-182.8-111.3-262.3c-23.8-36.2-52.399-70-83.8-99.9c-24.4-23.2-59-56-95.2-55.3 c-0.399,0-0.8,0-1.3,0c-58.6,2.5-78.3,71.4-87.7,118.6c-5.7,28.4-9.2,57.2-10.8,86.2c-17.1-19.399-25.8-47.1-25.8-82.6v-120.1 h-38.3h-38.301v120.1c0,35.6-8.699,63.3-25.8,82.6c-1.6-29-5.2-57.8-10.8-86.2c-9.4-47.2-29.1-116.1-87.7-118.6 c-0.399,0-0.8,0-1.3,0c-36.3-0.8-70.9,32.1-95.2,55.3c-31.4,29.8-60,63.7-83.8,99.9c-52.4,79.5-93,168.599-111.4,262.3 c-12.9,65.799-41.2,229.4,62.5,235c60.2,3.199,114.1-48.1,164.2-74c40-20.701,81.3-43.301,109.4-79.6 c32.1-41.5,40.2-96.5,47.3-147c2.6-18.602,4.6-37.4,6-56.201c10.6-4.6,22.5-11.1,34.4-20.199c10-7.701,20.699-17.701,30.5-30.701 c9.8,13,20.4,23.101,30.5,30.701c11.899,9.1,23.8,15.6,34.399,20.199c1.3,18.801,3.3,37.6,6,56.201 c7.101,50.5,15.3,105.5,47.3,147c28,36.299,69.4,59,109.4,79.6c50.1,25.9,104.1,77.199,164.2,74 C963.184,849.767,934.884,686.165,921.983,620.366z"/> <path d="M506.084,163.966v-54c0-16.6-13.4-30-30-30h-8.3h-8.301c-16.6,0-30,13.4-30,30v54h38.301H506.084z"/> </g> </g> </g>

</svg>